<svg width="90" height="29" viewBox="0 0 90 29" fill="none" xmlns="http://www.w3.org/2000/svg">
<path d="M9.68 10.08C9.37067 9.42933 8.92267 8.928 8.336 8.576C7.74933 8.21333 7.06667 8.032 6.288 8.032C5.50933 8.032 4.80533 8.21333 4.176 8.576C3.55733 8.928 3.06667 9.44 2.704 10.112C2.352 10.7733 2.176 11.5413 2.176 12.416C2.176 13.2907 2.352 14.0587 2.704 14.72C3.06667 15.3813 3.55733 15.8933 4.176 16.256C4.80533 16.608 5.50933 16.784 6.288 16.784C7.376 16.784 8.272 16.4587 8.976 15.808C9.68 15.1573 10.0907 14.2773 10.208 13.168H5.76V11.984H11.76V13.104C11.6747 14.0213 11.3867 14.864 10.896 15.632C10.4053 16.3893 9.76 16.992 8.96 17.44C8.16 17.8773 7.26933 18.096 6.288 18.096C5.25333 18.096 4.30933 17.856 3.456 17.376C2.60267 16.8853 1.92533 16.208 1.424 15.344C0.933333 14.48 0.688 13.504 0.688 12.416C0.688 11.328 0.933333 10.352 1.424 9.488C1.92533 8.61333 2.60267 7.936 3.456 7.456C4.30933 6.96533 5.25333 6.72 6.288 6.72C7.472 6.72 8.51733 7.01333 9.424 7.6C10.3413 8.18667 11.008 9.01333 11.424 10.08H9.68ZM14.4371 7.808C14.1598 7.808 13.9251 7.712 13.7331 7.52C13.5411 7.328 13.4451 7.09333 13.4451 6.816C13.4451 6.53867 13.5411 6.304 13.7331 6.112C13.9251 5.92 14.1598 5.824 14.4371 5.824C14.7038 5.824 14.9278 5.92 15.1091 6.112C15.3011 6.304 15.3971 6.53867 15.3971 6.816C15.3971 7.09333 15.3011 7.328 15.1091 7.52C14.9278 7.712 14.7038 7.808 14.4371 7.808ZM15.1411 9.232V18H13.6851V9.232H15.1411ZM19.3986 10.432V15.6C19.3986 16.0267 19.4893 16.3307 19.6706 16.512C19.852 16.6827 20.1666 16.768 20.6146 16.768H21.6866V18H20.3746C19.564 18 18.956 17.8133 18.5506 17.44C18.1453 17.0667 17.9426 16.4533 17.9426 15.6V10.432H16.8066V9.232H17.9426V7.024H19.3986V9.232H21.6866V10.432H19.3986ZM27.8028 9.072C28.4641 9.072 29.0614 9.216 29.5948 9.504C30.1281 9.78133 30.5441 10.2027 30.8428 10.768C31.1521 11.3333 31.3068 12.0213 31.3068 12.832V18H29.8668V13.04C29.8668 12.1653 29.6481 11.4987 29.2108 11.04C28.7734 10.5707 28.1761 10.336 27.4188 10.336C26.6508 10.336 26.0374 10.576 25.5788 11.056C25.1308 11.536 24.9068 12.2347 24.9068 13.152V18H23.4508V6.16H24.9068V10.48C25.1948 10.032 25.5894 9.68533 26.0908 9.44C26.6028 9.19467 27.1734 9.072 27.8028 9.072ZM41.4611 9.232V18H40.0051V16.704C39.7278 17.152 39.3385 17.504 38.8371 17.76C38.3465 18.0053 37.8025 18.128 37.2051 18.128C36.5225 18.128 35.9091 17.9893 35.3651 17.712C34.8211 17.424 34.3891 16.9973 34.0691 16.432C33.7598 15.8667 33.6051 15.1787 33.6051 14.368V9.232H35.0451V14.176C35.0451 15.04 35.2638 15.7067 35.7011 16.176C36.1385 16.6347 36.7358 16.864 37.4931 16.864C38.2718 16.864 38.8851 16.624 39.3331 16.144C39.7811 15.664 40.0051 14.9653 40.0051 14.048V9.232H41.4611ZM45.3755 10.864C45.6742 10.3413 46.1115 9.91467 46.6875 9.584C47.2635 9.25333 47.9195 9.088 48.6555 9.088C49.4448 9.088 50.1542 9.27467 50.7835 9.648C51.4128 10.0213 51.9088 10.5493 52.2715 11.232C52.6342 11.904 52.8155 12.688 52.8155 13.584C52.8155 14.4693 52.6342 15.2587 52.2715 15.952C51.9088 16.6453 51.4075 17.184 50.7675 17.568C50.1382 17.952 49.4342 18.144 48.6555 18.144C47.8982 18.144 47.2315 17.9787 46.6555 17.648C46.0902 17.3173 45.6635 16.896 45.3755 16.384V18H43.9195V6.16H45.3755V10.864ZM51.3275 13.584C51.3275 12.9227 51.1942 12.3467 50.9275 11.856C50.6608 11.3653 50.2982 10.992 49.8395 10.736C49.3915 10.48 48.8955 10.352 48.3515 10.352C47.8182 10.352 47.3222 10.4853 46.8635 10.752C46.4155 11.008 46.0528 11.3867 45.7755 11.888C45.5088 12.3787 45.3755 12.9493 45.3755 13.6C45.3755 14.2613 45.5088 14.8427 45.7755 15.344C46.0528 15.8347 46.4155 16.2133 46.8635 16.48C47.3222 16.736 47.8182 16.864 48.3515 16.864C48.8955 16.864 49.3915 16.736 49.8395 16.48C50.2982 16.2133 50.6608 15.8347 50.9275 15.344C51.1942 14.8427 51.3275 14.256 51.3275 13.584Z" fill="#DBDBDB"/>
<path d="M75.5 0C67.5307 0 61 6.58735 61 14.5566C61 22.4797 67.4712 29 75.5 29C83.5189 29 90 22.4894 90 14.5566C90 6.58735 83.4693 0 75.5 0ZM78.0488 27.0459C77.2333 27.2158 76.3666 27.3008 75.5 27.3008C74.6334 27.3008 73.7667 27.2158 72.9512 27.0459V23.0698C72.9512 22.1182 73.2061 21.7783 73.5459 21.3194C73.7189 21.1216 73.8233 20.9442 74.5993 19.7733L73.291 19.5693C69.9264 19.0766 68.6011 17.3263 68.0743 15.9669C67.3946 14.1489 67.7515 11.8717 68.975 10.4276C69.162 10.2066 69.3149 9.83268 69.179 9.44195C68.9239 8.66026 68.958 7.41992 69.1279 6.94401C70.0289 7.07278 70.9553 7.71817 71.7279 8.18457C72.0839 8.39233 72.2706 8.33746 72.4414 8.35449C73.0622 8.22528 74.0307 7.91265 75.517 7.91265C76.4346 7.91265 77.4032 8.0485 78.3548 8.32042C78.525 8.31644 78.7984 8.46114 79.2724 8.18457C80.0799 7.6925 80.9749 7.06924 81.8721 6.94401C82.042 7.41992 82.0761 8.66026 81.8212 9.44195C81.6851 9.83268 81.838 10.2066 82.0252 10.4276C83.2485 11.872 83.6054 14.1489 82.9257 15.9669C82.3989 17.3263 81.0736 19.0766 77.709 19.5693L76.4007 19.7733C77.2028 20.9836 77.2873 21.1287 77.4543 21.3194C77.7939 21.7783 78.0488 22.1182 78.0488 23.0698V27.0459ZM79.748 26.5532V23.0698C79.748 22.1011 79.5441 21.4555 79.2721 20.9796C81.855 20.2831 83.6903 18.7536 84.5059 16.5616C85.3725 14.2509 84.9818 11.498 83.5372 9.59483C83.7923 8.45649 83.7923 6.63824 83.1806 5.78863C82.9086 5.41493 82.5347 5.21094 82.059 5.21094C82.042 5.21094 82.042 5.21094 82.042 5.21094C80.7244 5.28218 79.6874 5.94572 78.5756 6.6212C77.5561 6.34928 76.5195 6.21343 75.483 6.21343C74.4296 6.21343 73.376 6.36632 72.4416 6.6212C71.2712 5.91541 70.2441 5.28041 68.8901 5.21094C68.4653 5.21094 68.0914 5.41493 67.8194 5.78863C67.2079 6.63824 67.2079 8.45649 67.4628 9.59483C66.0182 11.498 65.6275 14.2677 66.4941 16.5616C67.3097 18.7536 69.145 20.2831 71.7279 20.9796C71.517 21.3484 71.3502 21.8243 71.2845 22.4684C70.7628 22.6483 70.3103 22.7069 69.8895 22.5832C69.4456 22.452 69.0998 22.1558 68.7994 21.6504C68.1245 20.5167 66.9751 19.5912 65.6664 19.7116L65.8158 21.4042C66.4218 21.3486 67.0249 21.9898 67.3382 22.5184C67.8551 23.3888 68.5513 23.9596 69.4083 24.2128C70.0444 24.4002 70.6258 24.3957 71.252 24.2621V26.5532C66.3072 24.8199 62.6992 20.0961 62.6992 14.5566C62.6992 7.52192 68.4653 1.69922 75.5 1.69922C82.5347 1.69922 88.3008 7.52192 88.3008 14.5566C88.3008 20.0961 84.6928 24.8199 79.748 26.5532Z" fill="#DBDBDB"/>
</svg>
