<svg width="118" height="29" viewBox="0 0 118 29" fill="none" xmlns="http://www.w3.org/2000/svg">
<g clip-path="url(#clip0_906_53)">
<path d="M117.974 9.93807C117.91 8.50346 117.678 7.51718 117.346 6.66255C117.003 5.75538 116.476 4.94319 115.785 4.26802C115.11 3.58234 114.292 3.04954 113.395 2.71205C112.536 2.37972 111.555 2.14773 110.12 2.08447C108.675 2.01586 108.216 2 104.55 2C100.884 2 100.425 2.01586 98.9855 2.07912C97.5509 2.14237 96.5646 2.37457 95.7102 2.7067C94.8028 3.04954 93.9906 3.57698 93.3154 4.26802C92.6298 4.94319 92.0972 5.76074 91.7595 6.6574C91.4271 7.51718 91.1952 8.4981 91.1319 9.93272C91.0633 11.378 91.0474 11.8369 91.0474 15.5026C91.0474 19.1684 91.0633 19.6272 91.1265 21.0672C91.1898 22.5018 91.422 23.4881 91.7543 24.3427C92.0972 25.2499 92.6298 26.0621 93.3154 26.7373C93.9906 27.4229 94.8082 27.9557 95.7048 28.2932C96.5646 28.6256 97.5455 28.8575 98.9803 28.9208C100.42 28.9843 100.879 28.9999 104.545 28.9999C108.211 28.9999 108.67 28.9843 110.109 28.9208C111.544 28.8575 112.53 28.6256 113.385 28.2932C115.199 27.5917 116.634 26.1571 117.335 24.3427C117.668 23.4829 117.9 22.5018 117.963 21.0672C118.026 19.6272 118.042 19.1684 118.042 15.5026C118.042 11.8369 118.037 11.378 117.974 9.93807ZM115.542 20.9617C115.484 22.2803 115.263 22.9924 115.078 23.4671C114.624 24.6433 113.691 25.5769 112.515 26.0306C112.04 26.2152 111.323 26.4367 110.009 26.4945C108.585 26.558 108.158 26.5737 104.555 26.5737C100.953 26.5737 100.52 26.558 99.1015 26.4945C97.7829 26.4367 97.0708 26.2152 96.5961 26.0306C96.0108 25.8142 95.478 25.4714 95.0455 25.0231C94.5972 24.5852 94.2543 24.0578 94.038 23.4724C93.8534 22.9977 93.6319 22.2803 93.574 20.9671C93.5106 19.543 93.4949 19.1156 93.4949 15.5131C93.4949 11.9106 93.5106 11.4782 93.574 10.0594C93.6319 8.74081 93.8534 8.02876 94.038 7.55406C94.2543 6.96851 94.5972 6.43591 95.0509 6.00324C95.4885 5.55491 96.0159 5.21207 96.6015 4.99594C97.0762 4.81133 97.7936 4.58985 99.1069 4.53174C100.531 4.46849 100.958 4.45263 104.561 4.45263C108.168 4.45263 108.596 4.46849 110.014 4.53174C111.333 4.58985 112.045 4.81133 112.52 4.99594C113.105 5.21207 113.638 5.55491 114.07 6.00324C114.519 6.44106 114.862 6.96851 115.078 7.55406C115.263 8.02876 115.484 8.74596 115.542 10.0594C115.605 11.4835 115.621 11.9106 115.621 15.5131C115.621 19.1156 115.605 19.5376 115.542 20.9617Z" fill="#DBDBDB"/>
<path d="M104.55 8.56665C100.721 8.56665 97.6141 11.6732 97.6141 15.5026C97.6141 19.3319 100.721 22.4385 104.55 22.4385C108.379 22.4385 111.486 19.3319 111.486 15.5026C111.486 11.6732 108.379 8.56665 104.55 8.56665ZM104.55 20.0017C102.066 20.0017 100.051 17.9869 100.051 15.5026C100.051 13.0182 102.066 11.0034 104.55 11.0034C107.034 11.0034 109.049 13.0182 109.049 15.5026C109.049 17.9869 107.034 20.0017 104.55 20.0017V20.0017Z" fill="#DBDBDB"/>
<path d="M113.38 8.29256C113.38 9.18675 112.655 9.91178 111.76 9.91178C110.866 9.91178 110.141 9.18675 110.141 8.29256C110.141 7.39817 110.866 6.67334 111.76 6.67334C112.655 6.67334 113.38 7.39817 113.38 8.29256V8.29256Z" fill="#DBDBDB"/>
</g>
<path d="M2.688 6.848V18H1.232V6.848H2.688ZM9.4415 9.072C10.5082 9.072 11.3722 9.39733 12.0335 10.048C12.6948 10.688 13.0255 11.616 13.0255 12.832V18H11.5855V13.04C11.5855 12.1653 11.3668 11.4987 10.9295 11.04C10.4922 10.5707 9.89483 10.336 9.1375 10.336C8.3695 10.336 7.75617 10.576 7.2975 11.056C6.8495 11.536 6.6255 12.2347 6.6255 13.152V18H5.1695V9.232H6.6255V10.48C6.9135 10.032 7.30283 9.68533 7.7935 9.44C8.29483 9.19467 8.84417 9.072 9.4415 9.072ZM18.5079 18.144C17.8359 18.144 17.2332 18.032 16.6999 17.808C16.1665 17.5733 15.7452 17.2533 15.4359 16.848C15.1265 16.432 14.9559 15.9573 14.9239 15.424H16.4279C16.4705 15.8613 16.6732 16.2187 17.0359 16.496C17.4092 16.7733 17.8945 16.912 18.4919 16.912C19.0465 16.912 19.4839 16.7893 19.8039 16.544C20.1239 16.2987 20.2839 15.9893 20.2839 15.616C20.2839 15.232 20.1132 14.9493 19.7719 14.768C19.4305 14.576 18.9025 14.3893 18.1879 14.208C17.5372 14.0373 17.0039 13.8667 16.5879 13.696C16.1825 13.5147 15.8305 13.2533 15.5319 12.912C15.2439 12.56 15.0999 12.1013 15.0999 11.536C15.0999 11.088 15.2332 10.6773 15.4999 10.304C15.7665 9.93067 16.1452 9.63733 16.6359 9.424C17.1265 9.2 17.6865 9.088 18.3159 9.088C19.2865 9.088 20.0705 9.33333 20.6679 9.824C21.2652 10.3147 21.5852 10.9867 21.6279 11.84H20.1719C20.1399 11.3813 19.9532 11.0133 19.6119 10.736C19.2812 10.4587 18.8332 10.32 18.2679 10.32C17.7452 10.32 17.3292 10.432 17.0199 10.656C16.7105 10.88 16.5559 11.1733 16.5559 11.536C16.5559 11.824 16.6465 12.064 16.8279 12.256C17.0199 12.4373 17.2545 12.5867 17.5319 12.704C17.8199 12.8107 18.2145 12.9333 18.7159 13.072C19.3452 13.2427 19.8572 13.4133 20.2519 13.584C20.6465 13.744 20.9825 13.9893 21.2599 14.32C21.5479 14.6507 21.6972 15.0827 21.7079 15.616C21.7079 16.096 21.5745 16.528 21.3079 16.912C21.0412 17.296 20.6625 17.6 20.1719 17.824C19.6919 18.0373 19.1372 18.144 18.5079 18.144ZM25.5393 10.432V15.6C25.5393 16.0267 25.6299 16.3307 25.8113 16.512C25.9926 16.6827 26.3073 16.768 26.7552 16.768H27.8273V18H26.5153C25.7046 18 25.0966 17.8133 24.6913 17.44C24.2859 17.0667 24.0833 16.4533 24.0833 15.6V10.432H22.9473V9.232H24.0833V7.024H25.5393V9.232H27.8273V10.432H25.5393ZM29.0474 13.584C29.0474 12.688 29.2287 11.904 29.5914 11.232C29.954 10.5493 30.45 10.0213 31.0794 9.648C31.7194 9.27467 32.4287 9.088 33.2074 9.088C33.9754 9.088 34.642 9.25333 35.2074 9.584C35.7727 9.91467 36.194 10.3307 36.4714 10.832V9.232H37.9434V18H36.4714V16.368C36.1834 16.88 35.7514 17.3067 35.1754 17.648C34.61 17.9787 33.9487 18.144 33.1914 18.144C32.4127 18.144 31.7087 17.952 31.0794 17.568C30.45 17.184 29.954 16.6453 29.5914 15.952C29.2287 15.2587 29.0474 14.4693 29.0474 13.584ZM36.4714 13.6C36.4714 12.9387 36.338 12.3627 36.0714 11.872C35.8047 11.3813 35.442 11.008 34.9834 10.752C34.5354 10.4853 34.0394 10.352 33.4954 10.352C32.9514 10.352 32.4554 10.48 32.0074 10.736C31.5594 10.992 31.202 11.3653 30.9354 11.856C30.6687 12.3467 30.5354 12.9227 30.5354 13.584C30.5354 14.256 30.6687 14.8427 30.9354 15.344C31.202 15.8347 31.5594 16.2133 32.0074 16.48C32.4554 16.736 32.9514 16.864 33.4954 16.864C34.0394 16.864 34.5354 16.736 34.9834 16.48C35.442 16.2133 35.8047 15.8347 36.0714 15.344C36.338 14.8427 36.4714 14.2613 36.4714 13.6ZM44.0199 9.088C44.7772 9.088 45.4385 9.25333 46.0039 9.584C46.5799 9.91467 47.0065 10.3307 47.2839 10.832V9.232H48.7559V18.192C48.7559 18.992 48.5852 19.7013 48.2439 20.32C47.9025 20.9493 47.4119 21.44 46.7719 21.792C46.1425 22.144 45.4065 22.32 44.5639 22.32C43.4119 22.32 42.4519 22.048 41.6839 21.504C40.9159 20.96 40.4625 20.2187 40.3239 19.28H41.7639C41.9239 19.8133 42.2545 20.24 42.7559 20.56C43.2572 20.8907 43.8599 21.056 44.5639 21.056C45.3639 21.056 46.0145 20.8053 46.5159 20.304C47.0279 19.8027 47.2839 19.0987 47.2839 18.192V16.352C46.9959 16.864 46.5692 17.2907 46.0039 17.632C45.4385 17.9733 44.7772 18.144 44.0199 18.144C43.2412 18.144 42.5319 17.952 41.8919 17.568C41.2625 17.184 40.7665 16.6453 40.4039 15.952C40.0412 15.2587 39.8599 14.4693 39.8599 13.584C39.8599 12.688 40.0412 11.904 40.4039 11.232C40.7665 10.5493 41.2625 10.0213 41.8919 9.648C42.5319 9.27467 43.2412 9.088 44.0199 9.088ZM47.2839 13.6C47.2839 12.9387 47.1505 12.3627 46.8839 11.872C46.6172 11.3813 46.2545 11.008 45.7959 10.752C45.3479 10.4853 44.8519 10.352 44.3079 10.352C43.7639 10.352 43.2679 10.48 42.8199 10.736C42.3719 10.992 42.0145 11.3653 41.7479 11.856C41.4812 12.3467 41.3479 12.9227 41.3479 13.584C41.3479 14.256 41.4812 14.8427 41.7479 15.344C42.0145 15.8347 42.3719 16.2133 42.8199 16.48C43.2679 16.736 43.7639 16.864 44.3079 16.864C44.8519 16.864 45.3479 16.736 45.7959 16.48C46.2545 16.2133 46.6172 15.8347 46.8839 15.344C47.1505 14.8427 47.2839 14.2613 47.2839 13.6ZM52.6724 10.656C52.9284 10.1547 53.291 9.76533 53.7604 9.488C54.2404 9.21067 54.8217 9.072 55.5044 9.072V10.576H55.1204C53.4884 10.576 52.6724 11.4613 52.6724 13.232V18H51.2164V9.232H52.6724V10.656ZM56.6411 13.584C56.6411 12.688 56.8225 11.904 57.1851 11.232C57.5478 10.5493 58.0438 10.0213 58.6731 9.648C59.3131 9.27467 60.0225 9.088 60.8011 9.088C61.5691 9.088 62.2358 9.25333 62.8011 9.584C63.3665 9.91467 63.7878 10.3307 64.0651 10.832V9.232H65.5371V18H64.0651V16.368C63.7771 16.88 63.3451 17.3067 62.7691 17.648C62.2038 17.9787 61.5425 18.144 60.7851 18.144C60.0065 18.144 59.3025 17.952 58.6731 17.568C58.0438 17.184 57.5478 16.6453 57.1851 15.952C56.8225 15.2587 56.6411 14.4693 56.6411 13.584ZM64.0651 13.6C64.0651 12.9387 63.9318 12.3627 63.6651 11.872C63.3985 11.3813 63.0358 11.008 62.5771 10.752C62.1291 10.4853 61.6331 10.352 61.0891 10.352C60.5451 10.352 60.0491 10.48 59.6011 10.736C59.1531 10.992 58.7958 11.3653 58.5291 11.856C58.2625 12.3467 58.1291 12.9227 58.1291 13.584C58.1291 14.256 58.2625 14.8427 58.5291 15.344C58.7958 15.8347 59.1531 16.2133 59.6011 16.48C60.0491 16.736 60.5451 16.864 61.0891 16.864C61.6331 16.864 62.1291 16.736 62.5771 16.48C63.0358 16.2133 63.3985 15.8347 63.6651 15.344C63.9318 14.8427 64.0651 14.2613 64.0651 13.6ZM78.5416 9.072C79.2243 9.072 79.8323 9.216 80.3656 9.504C80.899 9.78133 81.3203 10.2027 81.6296 10.768C81.939 11.3333 82.0936 12.0213 82.0936 12.832V18H80.6536V13.04C80.6536 12.1653 80.435 11.4987 79.9976 11.04C79.571 10.5707 78.9896 10.336 78.2536 10.336C77.4963 10.336 76.8936 10.5813 76.4456 11.072C75.9976 11.552 75.7736 12.2507 75.7736 13.168V18H74.3336V13.04C74.3336 12.1653 74.115 11.4987 73.6776 11.04C73.251 10.5707 72.6696 10.336 71.9336 10.336C71.1763 10.336 70.5736 10.5813 70.1256 11.072C69.6776 11.552 69.4536 12.2507 69.4536 13.168V18H67.9976V9.232H69.4536V10.496C69.7416 10.0373 70.1256 9.68533 70.6056 9.44C71.0963 9.19467 71.635 9.072 72.2216 9.072C72.9576 9.072 73.6083 9.23733 74.1736 9.568C74.739 9.89867 75.1603 10.384 75.4376 11.024C75.683 10.4053 76.0883 9.92533 76.6536 9.584C77.219 9.24267 77.8483 9.072 78.5416 9.072Z" fill="#DBDBDB"/>
<defs>
<clipPath id="clip0_906_53">
<rect width="27" height="27" fill="white" transform="translate(91 2)"/>
</clipPath>
</defs>
</svg>
