<svg width="98" height="28" viewBox="0 0 98 28" fill="none" xmlns="http://www.w3.org/2000/svg">
<path d="M2.688 16.816H6.592V18H1.232V6.848H2.688V16.816ZM8.89025 7.808C8.61292 7.808 8.37825 7.712 8.18625 7.52C7.99425 7.328 7.89825 7.09333 7.89825 6.816C7.89825 6.53867 7.99425 6.304 8.18625 6.112C8.37825 5.92 8.61292 5.824 8.89025 5.824C9.15692 5.824 9.38092 5.92 9.56225 6.112C9.75425 6.304 9.85025 6.53867 9.85025 6.816C9.85025 7.09333 9.75425 7.328 9.56225 7.52C9.38092 7.712 9.15692 7.808 8.89025 7.808ZM9.59425 9.232V18H8.13825V9.232H9.59425ZM16.3478 9.072C17.4144 9.072 18.2784 9.39733 18.9398 10.048C19.6011 10.688 19.9318 11.616 19.9318 12.832V18H18.4918V13.04C18.4918 12.1653 18.2731 11.4987 17.8358 11.04C17.3984 10.5707 16.8011 10.336 16.0438 10.336C15.2758 10.336 14.6624 10.576 14.2038 11.056C13.7558 11.536 13.5318 12.2347 13.5318 13.152V18H12.0758V9.232H13.5318V10.48C13.8198 10.032 14.2091 9.68533 14.6998 9.44C15.2011 9.19467 15.7504 9.072 16.3478 9.072ZM27.2061 18L23.7661 14.128V18H22.3101V6.16H23.7661V13.12L27.1421 9.232H29.1741L25.0461 13.6L29.1901 18H27.2061ZM38.5445 13.28C38.5445 13.5573 38.5285 13.8507 38.4965 14.16H31.4885C31.5418 15.024 31.8352 15.7013 32.3685 16.192C32.9125 16.672 33.5685 16.912 34.3365 16.912C34.9658 16.912 35.4885 16.768 35.9045 16.48C36.3312 16.1813 36.6298 15.7867 36.8005 15.296H38.3685C38.1338 16.1387 37.6645 16.8267 36.9605 17.36C36.2565 17.8827 35.3818 18.144 34.3365 18.144C33.5045 18.144 32.7578 17.9573 32.0965 17.584C31.4458 17.2107 30.9338 16.6827 30.5605 16C30.1872 15.3067 30.0005 14.5067 30.0005 13.6C30.0005 12.6933 30.1818 11.8987 30.5445 11.216C30.9072 10.5333 31.4138 10.0107 32.0645 9.648C32.7258 9.27467 33.4832 9.088 34.3365 9.088C35.1685 9.088 35.9045 9.26933 36.5445 9.632C37.1845 9.99467 37.6752 10.496 38.0165 11.136C38.3685 11.7653 38.5445 12.48 38.5445 13.28ZM37.0405 12.976C37.0405 12.4213 36.9178 11.9467 36.6725 11.552C36.4272 11.1467 36.0912 10.8427 35.6645 10.64C35.2485 10.4267 34.7845 10.32 34.2725 10.32C33.5365 10.32 32.9072 10.5547 32.3845 11.024C31.8725 11.4933 31.5792 12.144 31.5045 12.976H37.0405ZM39.9224 13.584C39.9224 12.688 40.1037 11.904 40.4664 11.232C40.829 10.5493 41.325 10.0213 41.9544 9.648C42.5944 9.27467 43.309 9.088 44.0984 9.088C44.781 9.088 45.4157 9.248 46.0024 9.568C46.589 9.87733 47.037 10.288 47.3464 10.8V6.16H48.8184V18H47.3464V16.352C47.0584 16.8747 46.6317 17.3067 46.0664 17.648C45.501 17.9787 44.8397 18.144 44.0824 18.144C43.3037 18.144 42.5944 17.952 41.9544 17.568C41.325 17.184 40.829 16.6453 40.4664 15.952C40.1037 15.2587 39.9224 14.4693 39.9224 13.584ZM47.3464 13.6C47.3464 12.9387 47.213 12.3627 46.9464 11.872C46.6797 11.3813 46.317 11.008 45.8584 10.752C45.4104 10.4853 44.9144 10.352 44.3704 10.352C43.8264 10.352 43.3304 10.48 42.8824 10.736C42.4344 10.992 42.077 11.3653 41.8104 11.856C41.5437 12.3467 41.4104 12.9227 41.4104 13.584C41.4104 14.256 41.5437 14.8427 41.8104 15.344C42.077 15.8347 42.4344 16.2133 42.8824 16.48C43.3304 16.736 43.8264 16.864 44.3704 16.864C44.9144 16.864 45.4104 16.736 45.8584 16.48C46.317 16.2133 46.6797 15.8347 46.9464 15.344C47.213 14.8427 47.3464 14.2613 47.3464 13.6ZM52.0309 7.808C51.7535 7.808 51.5189 7.712 51.3269 7.52C51.1349 7.328 51.0389 7.09333 51.0389 6.816C51.0389 6.53867 51.1349 6.304 51.3269 6.112C51.5189 5.92 51.7535 5.824 52.0309 5.824C52.2975 5.824 52.5215 5.92 52.7029 6.112C52.8949 6.304 52.9909 6.53867 52.9909 6.816C52.9909 7.09333 52.8949 7.328 52.7029 7.52C52.5215 7.712 52.2975 7.808 52.0309 7.808ZM52.7349 9.232V18H51.2789V9.232H52.7349ZM59.4884 9.072C60.555 9.072 61.419 9.39733 62.0804 10.048C62.7417 10.688 63.0724 11.616 63.0724 12.832V18H61.6324V13.04C61.6324 12.1653 61.4137 11.4987 60.9764 11.04C60.539 10.5707 59.9417 10.336 59.1844 10.336C58.4164 10.336 57.803 10.576 57.3444 11.056C56.8964 11.536 56.6724 12.2347 56.6724 13.152V18H55.2164V9.232H56.6724V10.48C56.9604 10.032 57.3497 9.68533 57.8404 9.44C58.3417 9.19467 58.891 9.072 59.4884 9.072Z" fill="#DBDBDB"/>
<path d="M78.7504 23.1328H74.9223V10.7734H78.7504V23.1328ZM79.1324 6.83572C79.1324 5.59821 78.1284 4.59375 76.8915 4.59375C75.6499 4.59375 74.6484 5.59821 74.6484 6.83572C74.6484 8.07367 75.6499 9.07812 76.8915 9.07812C78.1284 9.07812 79.1324 8.07367 79.1324 6.83572ZM93.0781 16.3332C93.0781 13.0154 92.3772 10.5547 88.5015 10.5547C86.6391 10.5547 85.389 11.4861 84.8786 12.4547H84.875V10.7734H81.1562V23.1328H84.875V16.9963C84.875 15.3892 85.2841 13.8323 87.2761 13.8323C89.241 13.8323 89.3047 15.6701 89.3047 17.0984V23.1328H93.0781V16.3332ZM98 24.7188V3.28125C98 1.47186 96.5281 0 94.7188 0H73.2812C71.4719 0 70 1.47186 70 3.28125V24.7188C70 26.5281 71.4719 28 73.2812 28H94.7188C96.5281 28 98 26.5281 98 24.7188ZM94.7188 2.1875C95.3218 2.1875 95.8125 2.67819 95.8125 3.28125V24.7188C95.8125 25.3218 95.3218 25.8125 94.7188 25.8125H73.2812C72.6782 25.8125 72.1875 25.3218 72.1875 24.7188V3.28125C72.1875 2.67819 72.6782 2.1875 73.2812 2.1875H94.7188Z" fill="#DBDBDB"/>
</svg>
